<?xml version="1.0" encoding="UTF-8"?>
<svg width="541.87mm" height="541.87mm" version="1.1" viewBox="0 0 1919.9999 1919.9999" xmlns="http://www.w3.org/2000/svg" xmlns:xlink="http://www.w3.org/1999/xlink">
 <defs>
  <pattern id="d" xlink:href="#c" patternTransform="matrix(2.1568 0 0 2.1568 -259.21 -1696.9)"/>
  <pattern id="c" width="60" height="51.9601" patternTransform="translate(-259.21 -1696.9)" patternUnits="userSpaceOnUse">
   <path d="m0 0v10.454l13.447 7.764v15.528l-13.447 7.764v10.451h1.5528v-7.764l13.447-7.7635 13.447 7.7635v7.764h3.1055v-7.764l13.447-7.7635 13.447 7.7635v7.764h1.5528v-10.451l-13.447-7.764v-15.528l13.447-7.764v-10.454h-1.5528v7.764l-13.447 7.7635-13.447-7.7635v-7.764h-3.1055v7.764l-13.447 7.7635-13.447-7.7635v-7.764h-1.5528zm30 10.454 13.447 7.764v15.528l-13.447 7.764-13.447-7.764v-15.528l13.447-7.764z" color="#000000" color-rendering="auto" image-rendering="auto" shape-rendering="auto" solid-color="#000000" style="isolation:auto;mix-blend-mode:normal"/>
  </pattern>
 </defs>
 <g transform="translate(259.21 1696.9)">
  <rect x="-259.21" y="-1696.9" width="1920" height="1920" color="#000000" color-rendering="auto" fill="url(#d)" image-rendering="auto" shape-rendering="auto" solid-color="#000000" style="isolation:auto;mix-blend-mode:normal"/>
 </g>
</svg>
